<svg width="36" height="36" viewBox="0 0 36 36" fill="none" xmlns="http://www.w3.org/2000/svg">
<rect x="0.75" y="0.75" width="34.5" height="34.5" rx="17.25" stroke="#AFAFAF" stroke-width="1.5"/>
<g clip-path="url(#clip0_127_1669)">
<path d="M22.3162 20.0469C21.2887 20.7266 19.8749 20.9961 18.9412 21.0977L19.7249 21.9023L22.5862 24.8828C23.6324 26 21.9299 27.7461 20.8724 26.668C20.1562 25.9102 19.1062 24.8164 18.0112 23.6758L15.1499 26.6641C14.0924 27.7383 12.3899 25.9766 13.4474 24.8789C14.1749 24.1211 15.2137 23.0273 16.3087 21.8984L17.0812 21.0938C16.1587 20.9922 14.7224 20.7383 13.6837 20.043C12.4612 19.2227 11.9249 18.7422 12.3974 17.7383C12.6749 17.168 13.4362 16.6875 14.4449 17.5156C14.4449 17.5156 15.8062 18.6445 18.0037 18.6445C20.2012 18.6445 21.5624 17.5156 21.5624 17.5156C22.5712 16.6914 23.3287 17.168 23.6099 17.7383C24.0749 18.7422 23.5387 19.2227 22.3162 20.0469ZM13.1362 12.0664C13.1362 9.26562 15.3224 7 17.9999 7C20.6774 7 22.8637 9.26562 22.8637 12.0664C22.8637 14.8555 20.6774 17.1211 17.9999 17.1211C15.3224 17.1211 13.1362 14.8555 13.1362 12.0664ZM15.6112 12.0664C15.6112 13.4375 16.6837 14.5547 17.9999 14.5547C19.3162 14.5547 20.3887 13.4375 20.3887 12.0664C20.3887 10.6836 19.3162 9.56641 17.9999 9.56641C16.6837 9.56641 15.6112 10.6836 15.6112 12.0664Z" fill="#AFAFAF"/>
</g>
<defs>
<clipPath id="clip0_127_1669">
<rect width="12" height="20" fill="white" transform="translate(12 7)"/>
</clipPath>
</defs>
</svg>
