<svg width="36" height="36" viewBox="0 0 36 36" fill="none" xmlns="http://www.w3.org/2000/svg">
<path d="M24.93 26C23.2447 26 21.5167 25.578 19.746 24.734C17.9753 23.89 16.3273 22.705 14.802 21.179C13.2887 19.6537 12.11 18.0087 11.266 16.244C10.422 14.4793 10 12.7547 10 11.07C10 10.77 10.1 10.5167 10.3 10.31C10.5 10.1033 10.75 10 11.05 10H13.523C13.795 10 14.0323 10.0857 14.235 10.257C14.4377 10.4283 14.5747 10.648 14.646 10.916L15.142 13.3C15.1887 13.58 15.1803 13.8243 15.117 14.033C15.0537 14.2417 14.9427 14.4127 14.784 14.546L12.59 16.592C13.0007 17.3367 13.4543 18.0287 13.951 18.668C14.4477 19.3073 14.9777 19.913 15.541 20.485C16.121 21.065 16.7457 21.605 17.415 22.105C18.0843 22.6043 18.819 23.0757 19.619 23.519L21.758 21.342C21.9207 21.1667 22.1037 21.051 22.307 20.995C22.5097 20.9397 22.7343 20.9287 22.981 20.962L25.084 21.392C25.356 21.4587 25.5767 21.5957 25.746 21.803C25.9153 22.0103 26 22.2477 26 22.515V24.95C26 25.25 25.8967 25.5 25.69 25.7C25.4833 25.9 25.23 26 24.93 26Z" fill="#AFAFAF"/>
</svg>
