<svg width="36" height="36" viewBox="0 0 36 36" fill="none" xmlns="http://www.w3.org/2000/svg">
<rect x="0.75" y="0.75" width="34.5" height="34.5" rx="17.25" stroke="#AFAFAF" stroke-width="1.5"/>
<path d="M27.504 25.3814H25.222C24.359 25.3814 24.099 24.6824 22.552 23.1344C21.2 21.8314 20.629 21.6694 20.287 21.6694C19.814 21.6694 19.685 21.7994 19.685 22.4504V24.5024C19.685 25.0574 19.505 25.3824 18.055 25.3824C16.6483 25.2879 15.2842 24.8606 14.075 24.1356C12.8658 23.4106 11.8461 22.4087 11.1 21.2124C9.32901 19.0071 8.09641 16.4193 7.5 13.6544C7.5 13.3124 7.63 13.0024 8.282 13.0024H10.562C11.148 13.0024 11.359 13.2634 11.589 13.8664C12.696 17.1244 14.585 19.9584 15.352 19.9584C15.646 19.9584 15.774 19.8284 15.774 19.0954V15.7394C15.677 14.2084 14.864 14.0794 14.864 13.5254C14.8743 13.3793 14.9411 13.2429 15.0504 13.1452C15.1596 13.0476 15.3026 12.9963 15.449 13.0024H19.033C19.523 13.0024 19.685 13.2464 19.685 13.8324V18.3624C19.685 18.8514 19.895 19.0134 20.043 19.0134C20.337 19.0134 20.563 18.8514 21.102 18.3134C22.2569 16.9041 23.2008 15.3343 23.904 13.6534C23.9756 13.4514 24.1116 13.2784 24.2909 13.161C24.4703 13.0436 24.6832 12.9883 24.897 13.0034H27.178C27.862 13.0034 28.007 13.3454 27.862 13.8334C27.0321 15.6917 26.0056 17.4558 24.8 19.0954C24.554 19.4704 24.456 19.6654 24.8 20.1054C25.026 20.4474 25.826 21.1154 26.363 21.7504C27.145 22.5304 27.794 23.4324 28.285 24.4204C28.481 25.0564 28.155 25.3814 27.504 25.3814Z" fill="#AFAFAF"/>
</svg>
