<svg width="12" height="13" viewBox="0 0 12 13" fill="none" xmlns="http://www.w3.org/2000/svg">
<path d="M5.99979 1.76449e-07C6.78414 -0.000246064 7.54792 0.257242 8.17902 0.734671C8.81012 1.2121 9.2753 1.88433 9.50628 2.65268C9.73726 3.42104 9.72189 4.24506 9.46241 5.0038C9.20292 5.76254 8.713 6.41603 8.06455 6.86837C9.19008 7.29153 10.1663 8.05031 10.8675 9.04703C11.5688 10.0437 11.963 11.2328 11.9993 12.4611C12.0027 12.5293 11.9928 12.5975 11.9702 12.6617C11.9475 12.7259 11.9126 12.7848 11.8674 12.835C11.8223 12.8851 11.7678 12.9256 11.7072 12.9539C11.6466 12.9822 11.5811 12.9978 11.5145 12.9998C11.4479 13.0018 11.3816 12.9901 11.3195 12.9655C11.2574 12.9409 11.2007 12.9038 11.1527 12.8565C11.1048 12.8091 11.0665 12.7524 11.0402 12.6896C11.014 12.6269 11.0001 12.5594 10.9996 12.4912C10.9599 11.1591 10.4158 9.89523 9.48253 8.96738C8.54927 8.03953 7.30024 7.52062 6.00012 7.52062C4.7 7.52062 3.45097 8.03953 2.51771 8.96738C1.58445 9.89523 1.04031 11.1591 1.0006 12.4912C0.996617 12.6272 0.940102 12.756 0.843485 12.8492C0.746868 12.9425 0.618063 12.9926 0.485405 12.9885C0.352748 12.9844 0.227105 12.9265 0.136116 12.8275C0.0451269 12.7284 -0.00375443 12.5964 0.000225291 12.4604C0.0367376 11.2322 0.430982 10.0433 1.13222 9.04675C1.83346 8.05016 2.8096 7.29149 3.93502 6.86837C3.28657 6.41603 2.79665 5.76254 2.53717 5.0038C2.27769 4.24506 2.26231 3.42104 2.49329 2.65268C2.72427 1.88433 3.18945 1.2121 3.82055 0.734671C4.45165 0.257242 5.21543 -0.000246064 5.99979 1.76449e-07ZM3.33213 3.75993C3.33213 4.48517 3.61319 5.1807 4.11347 5.69351C4.61375 6.20633 5.29228 6.49443 5.99979 6.49443C6.70729 6.49443 7.38582 6.20633 7.88611 5.69351C8.38639 5.1807 8.66744 4.48517 8.66744 3.75993C8.66744 3.0347 8.38639 2.33917 7.88611 1.82635C7.38582 1.31353 6.70729 1.02544 5.99979 1.02544C5.29228 1.02544 4.61375 1.31353 4.11347 1.82635C3.61319 2.33917 3.33213 3.0347 3.33213 3.75993Z" fill="#303440"/>
</svg>
