<svg width="147" height="19" viewBox="0 0 147 19" fill="none" xmlns="http://www.w3.org/2000/svg">
<path d="M25.8281 18.4395V0H30.1219L40.29 12.2754H38.2616V0H43.372V18.4395H39.0782L28.9102 6.16406H30.9385V18.4395H25.8281Z" fill="#101828"/>
<path d="M16.9014 18.4393V-0.000183105H22.1171V18.4393H16.9014Z" fill="#101828"/>
<path d="M4.84695 8.08704H13.3555V12.1174H4.84695V8.08704ZM5.21574 18.4395H0V0H14.4618V4.03035H5.21574V18.4395Z" fill="#101828"/>
<path fill-rule="evenodd" clip-rule="evenodd" d="M47.2002 0V18.4395H57.1575C59.6337 18.4395 61.5128 18.0005 62.7947 17.1224C64.0943 16.2268 64.7441 14.9799 64.7441 13.3818C64.7441 12.3106 64.4719 11.4062 63.9275 10.6686C63.4006 9.91343 62.6543 9.34268 61.6884 8.95633C61.5768 8.90967 61.463 8.86571 61.347 8.82444C62.0822 8.42803 62.6614 7.92759 63.0845 7.32312C63.5938 6.6031 63.8484 5.76893 63.8484 4.82061C63.8484 3.38058 63.2513 2.22152 62.0572 1.34345C60.863 0.447816 59.0542 0 56.6307 0H47.2002ZM56.7361 14.6726H52.3633V10.932H56.7361C57.6317 10.932 58.3078 11.09 58.7644 11.4062C59.2386 11.7047 59.4756 12.1701 59.4756 12.8023C59.4756 13.4345 59.2386 13.9087 58.7644 14.2248C58.3078 14.5233 57.6317 14.6726 56.7361 14.6726ZM52.3633 7.32312V3.76693H55.9458C56.8239 3.76693 57.4824 3.9162 57.9215 4.21474C58.3605 4.49573 58.58 4.93476 58.58 5.53185C58.58 6.12894 58.3605 6.57676 57.9215 6.8753C57.4824 7.17385 56.8239 7.32312 55.9458 7.32312H52.3633ZM72.6084 11.0374V14.4092H82.2496V18.4395H67.4453V0H81.9072V4.03035H72.6084V7.13872H80.8008V11.0374H72.6084Z" fill="#2DB93B"/>
<path d="M136.99 7.13872H145.551V11.0374H136.99V7.13872ZM137.358 14.4092H147V18.4395H132.195V0H146.657V4.03035H137.358V14.4092Z" fill="#101828"/>
<path d="M110.972 18.4395V0H115.265L125.434 12.2754H123.405V0H128.516V18.4395H124.222L114.054 6.16406H116.082V18.4395H110.972Z" fill="#101828"/>
<path d="M102.046 18.4395V0H107.262V18.4395H102.046Z" fill="#101828"/>
<path d="M89.9915 8.08704H98.5V12.1174H89.9915V8.08704ZM90.3603 18.4395H85.1445V0H99.6064V4.03035H90.3603V18.4395Z" fill="#101828"/>
</svg>
