<svg width="11" height="14" viewBox="0 0 11 14" fill="none" xmlns="http://www.w3.org/2000/svg">
<path d="M8.89525 7.8225C8.43675 8.75175 7.8155 9.6775 7.18025 10.5087C6.57698 11.2919 5.93266 12.0425 5.25 12.7575C4.56734 12.0425 3.92302 11.2919 3.31975 10.5087C2.6845 9.6775 2.06325 8.75175 1.60475 7.8225C1.141 6.88362 0.875 6.00425 0.875 5.25C0.875 4.08968 1.33594 2.97688 2.15641 2.15641C2.97688 1.33594 4.08968 0.875 5.25 0.875C6.41032 0.875 7.52312 1.33594 8.34359 2.15641C9.16406 2.97688 9.625 4.08968 9.625 5.25C9.625 6.00425 9.35813 6.88362 8.89525 7.8225ZM5.25 14C5.25 14 10.5 9.02475 10.5 5.25C10.5 3.85761 9.94688 2.52226 8.96231 1.53769C7.97774 0.553123 6.64239 0 5.25 0C3.85761 0 2.52226 0.553123 1.53769 1.53769C0.553123 2.52226 2.07482e-08 3.85761 0 5.25C0 9.02475 5.25 14 5.25 14Z" fill="#303440"/>
<path d="M5.25 7C4.78587 7 4.34075 6.81563 4.01256 6.48744C3.68437 6.15925 3.5 5.71413 3.5 5.25C3.5 4.78587 3.68437 4.34075 4.01256 4.01256C4.34075 3.68437 4.78587 3.5 5.25 3.5C5.71413 3.5 6.15925 3.68437 6.48744 4.01256C6.81563 4.34075 7 4.78587 7 5.25C7 5.71413 6.81563 6.15925 6.48744 6.48744C6.15925 6.81563 5.71413 7 5.25 7ZM5.25 7.875C5.94619 7.875 6.61387 7.59844 7.10616 7.10616C7.59844 6.61387 7.875 5.94619 7.875 5.25C7.875 4.55381 7.59844 3.88613 7.10616 3.39384C6.61387 2.90156 5.94619 2.625 5.25 2.625C4.55381 2.625 3.88613 2.90156 3.39384 3.39384C2.90156 3.88613 2.625 4.55381 2.625 5.25C2.625 5.94619 2.90156 6.61387 3.39384 7.10616C3.88613 7.59844 4.55381 7.875 5.25 7.875Z" fill="#303440"/>
</svg>
