<svg width="52" height="34" viewBox="0 0 52 34" fill="none" xmlns="http://www.w3.org/2000/svg">
<g clip-path="url(#clip0_127_1226)">
<path d="M0 0H52V34H0V0Z" fill="#D80027"/>
<path d="M22.9895 23.7801L22.0063 22.2292L20.1919 22.6667L21.3981 21.2649L20.4149 19.714L22.1482 20.4L23.3443 18.9982L23.2125 20.8275L24.9459 21.5135L23.1314 21.9509L22.9895 23.7801ZM29.4566 8.15205L28.4328 9.68304L29.6086 11.1047L27.8145 10.6275L26.7907 12.1684L26.6893 10.3392L24.8952 9.86199L26.6386 9.20585L26.5373 7.37661L27.7131 8.79825L29.4566 8.15205ZM23.9423 2.52515L23.7396 4.34444L25.4425 5.1L23.618 5.47778L23.4152 7.29708L22.4827 5.70643L20.6683 6.08421L21.9151 4.72222L20.9825 3.14152L22.6854 3.88713L23.9423 2.52515ZM29.6796 16.0854L28.1692 17.169L28.7572 18.9088L27.2468 17.8351L25.7365 18.9287L26.3041 17.1789L24.7938 16.1152L26.6589 16.1053L27.2266 14.3556L27.8145 16.0953L29.6796 16.0854ZM11.657 4.60292L13.4106 9.92164H19.1073L14.5053 13.1924L16.2589 18.5111L11.657 15.2304L7.04488 18.5111L8.80862 13.1924L4.19653 9.92164H9.90336L11.657 4.60292Z" fill="#FFDA44"/>
</g>
<defs>
<clipPath id="clip0_127_1226">
<rect width="52" height="34" fill="white"/>
</clipPath>
</defs>
</svg>
