<svg width="52" height="34" viewBox="0 0 52 34" fill="none" xmlns="http://www.w3.org/2000/svg">
<g clip-path="url(#clip0_127_1225)">
<path d="M0 0H52V34H0V0Z" fill="#003399"/>
<path d="M25.9968 3.76929L26.4292 5.07375H27.8347L26.7027 5.88043L27.1289 7.18629L25.9968 6.3796L24.8647 7.18629L25.2972 5.88113L24.1652 5.07445H25.5644L25.9968 3.76929ZM20.219 5.2804L20.6514 6.58486H22.0569L20.9249 7.39155L21.3511 8.6974L20.219 7.89072L19.087 8.6974L19.5194 7.39224L18.3874 6.58556H19.7866L20.219 5.2804ZM15.982 9.43595L16.4144 10.7404H17.8199L16.6879 11.5471L17.114 12.853L15.982 12.0463L14.8499 12.853L15.2824 11.5478L14.1504 10.7411H15.5496L15.982 9.43595ZM14.4412 15.1026L14.8736 16.4071H16.2792L15.1472 17.2138L15.5733 18.5197L14.4412 17.7129L13.3092 18.5197L13.7416 17.2144L12.6096 16.4078H14.0089L14.4412 15.1026ZM15.982 20.7693L16.4144 22.0738H17.8199L16.6879 22.8804L17.114 24.1863L15.982 23.3797L14.8499 24.1863L15.2824 22.8811L14.1504 22.0744H15.5496L15.982 20.7693ZM20.219 24.9248L20.6514 26.2294H22.0569L20.9249 27.036L21.3511 28.3418L20.219 27.5352L19.087 28.3418L19.5194 27.0367L18.3874 26.23H19.7866L20.219 24.9248ZM31.7746 5.2804L32.2069 6.58486H33.6125L32.4805 7.39155L32.9066 8.6974L31.7746 7.89072L30.6424 8.6974L31.0749 7.39224L29.943 6.58556H31.3421L31.7746 5.2804ZM36.0116 9.43595L36.444 10.7404H37.8495L36.7175 11.5471L37.1436 12.853L36.0116 12.0463L34.8795 12.853L35.312 11.5478L34.18 10.7411H35.5792L36.0116 9.43595ZM37.5523 15.1026L37.9847 16.4071H39.3903L38.2583 17.2138L38.6844 18.5197L37.5523 17.7129L36.4203 18.5197L36.8527 17.2144L35.7207 16.4078H37.12L37.5523 15.1026ZM36.0116 20.7693L36.444 22.0738H37.8495L36.7175 22.8804L37.1437 24.1863L36.0116 23.3797L34.8795 24.1863L35.312 22.8811L34.18 22.0744H35.5792L36.0116 20.7693ZM25.9968 26.4359L26.4292 27.7405H27.8347L26.7027 28.5471L27.1289 29.853L25.9968 29.0463L24.8647 29.853L25.2972 28.5478L24.1652 27.7411H25.5644L25.9968 26.4359ZM31.7746 24.9248L32.2069 26.2293H33.6125L32.4805 27.036L32.9067 28.3418L31.7746 27.5352L30.6426 28.3418L31.0749 27.0366L29.943 26.23H31.3423L31.7746 24.9248Z" fill="#FFCC00"/>
</g>
<defs>
<clipPath id="clip0_127_1225">
<rect width="52" height="34" fill="white"/>
</clipPath>
</defs>
</svg>
