<svg width="458" height="19" viewBox="0 0 458 19" fill="none" xmlns="http://www.w3.org/2000/svg">
<path d="M181.328 18.4395V0H185.622L195.79 12.2754H193.762V0H198.872V18.4395H194.578L184.41 6.16406H186.439V18.4395H181.328Z" fill="#101828"/>
<path d="M172.402 18.4395V0H177.617V18.4395H172.402Z" fill="#101828"/>
<path d="M160.347 8.08704H168.856V12.1174H160.347V8.08704ZM160.716 18.4395H155.5V0H169.962V4.03035H160.716V18.4395Z" fill="#101828"/>
<path fill-rule="evenodd" clip-rule="evenodd" d="M202.7 0V18.4395H212.658C215.134 18.4395 217.013 18.0005 218.295 17.1224C219.595 16.2268 220.244 14.9799 220.244 13.3818C220.244 12.3106 219.972 11.4062 219.428 10.6686C218.901 9.91343 218.154 9.34268 217.189 8.95633C217.077 8.90967 216.963 8.86571 216.847 8.82444C217.582 8.42803 218.162 7.92759 218.585 7.32312C219.094 6.6031 219.349 5.76893 219.349 4.82061C219.349 3.38058 218.752 2.22152 217.557 1.34345C216.363 0.447816 214.554 0 212.131 0H202.7ZM212.236 14.6726H207.864V10.932H212.236C213.132 10.932 213.808 11.09 214.265 11.4062C214.739 11.7047 214.976 12.1701 214.976 12.8023C214.976 13.4345 214.739 13.9087 214.265 14.2248C213.808 14.5233 213.132 14.6726 212.236 14.6726ZM207.864 7.32312V3.76693H211.446C212.324 3.76693 212.983 3.9162 213.422 4.21474C213.861 4.49573 214.08 4.93476 214.08 5.53185C214.08 6.12894 213.861 6.57676 213.422 6.8753C212.983 7.17385 212.324 7.32312 211.446 7.32312H207.864ZM228.109 11.0374V14.4092H237.75V18.4395H222.946V0H237.407V4.03035H228.109V7.13872H236.301V11.0374H228.109Z" fill="#2DB93B"/>
<path d="M292.49 7.13872H301.051V11.0374H292.49V7.13872ZM292.859 14.4092H302.5V18.4395H287.696V0H302.157V4.03035H292.859V14.4092Z" fill="#101828"/>
<path d="M266.472 18.4395V0H270.766L280.934 12.2754H278.905V0H284.016V18.4395H279.722L269.554 6.16406H271.582V18.4395H266.472Z" fill="#101828"/>
<path d="M257.546 18.4395V0H262.762V18.4395H257.546Z" fill="#101828"/>
<path d="M245.492 8.08704H254V12.1174H245.492V8.08704ZM245.861 18.4395H240.645V0H255.107V4.03035H245.861V18.4395Z" fill="#101828"/>
</svg>
