<svg width="38" height="35" viewBox="0 0 38 35" fill="none" xmlns="http://www.w3.org/2000/svg">
<path d="M34.2 12.3496H38V34.1996H34.2V12.3496ZM28.5 18.9996H32.3V34.1996H28.5V18.9996ZM22.8 14.2496H26.6V34.1996H22.8V14.2496ZM17.1 19.9496H20.9V34.1996H17.1V19.9496ZM11.4 22.7996H15.2V34.1996H11.4V22.7996ZM5.7 20.8996H9.5V34.1996H5.7V20.8996ZM0 24.6996H3.8V34.1996H0V24.6996Z" fill="url(#paint0_linear_629_732)"/>
<path d="M34.2949 1.04504L28.4999 6.84004L24.6999 3.04004L15.1999 12.54L10.4499 7.79004L0.569946 17.67L3.22995 20.33L10.4499 13.11L15.1999 17.86L24.6999 8.36004L28.4999 12.16L36.9549 3.70504L34.2949 1.04504Z" fill="url(#paint1_linear_629_732)"/>
<path d="M38 0H29.45L38 8.55V0Z" fill="url(#paint2_linear_629_732)"/>
<path d="M34.2 12.3496H38V34.1996H34.2V12.3496ZM28.5 18.9996H32.3V34.1996H28.5V18.9996ZM22.8 14.2496H26.6V34.1996H22.8V14.2496ZM17.1 19.9496H20.9V34.1996H17.1V19.9496ZM11.4 22.7996H15.2V34.1996H11.4V22.7996ZM5.7 20.8996H9.5V34.1996H5.7V20.8996ZM0 24.6996H3.8V34.1996H0V24.6996Z" fill="#1D1D1D" fill-opacity="0.05"/>
<path d="M34.2 12.3496H38V34.1996H34.2V12.3496ZM28.5 18.9996H32.3V34.1996H28.5V18.9996ZM22.8 14.2496H26.6V34.1996H22.8V14.2496ZM17.1 19.9496H20.9V34.1996H17.1V19.9496ZM11.4 22.7996H15.2V34.1996H11.4V22.7996ZM5.7 20.8996H9.5V34.1996H5.7V20.8996ZM0 24.6996H3.8V34.1996H0V24.6996Z" fill="url(#paint3_linear_629_732)" fill-opacity="0.2"/>
<path d="M34.7 12.8496H37.5V33.6996H34.7V12.8496ZM29 19.4996H31.8V33.6996H29V19.4996ZM23.3 14.7496H26.1V33.6996H23.3V14.7496ZM17.6 20.4496H20.4V33.6996H17.6V20.4496ZM11.9 23.2996H14.7V33.6996H11.9V23.2996ZM6.2 21.3996H9V33.6996H6.2V21.3996ZM0.5 25.1996H3.3V33.6996H0.5V25.1996Z" stroke="url(#paint4_linear_629_732)" stroke-opacity="0.1"/>
<mask id="path-6-inside-1_629_732" fill="white">
<path fill-rule="evenodd" clip-rule="evenodd" d="M29.45 0H38V8.55L35.0549 5.60495L28.4999 12.1599L24.6999 8.35992L15.1999 17.8599L10.4499 13.1099L3.22995 20.3299L0.569946 17.6699L10.4499 7.78992L15.1999 12.5399L24.6999 3.03992L28.4999 6.83992L32.3949 2.94495L29.45 0Z"/>
</mask>
<path fill-rule="evenodd" clip-rule="evenodd" d="M29.45 0H38V8.55L35.0549 5.60495L28.4999 12.1599L24.6999 8.35992L15.1999 17.8599L10.4499 13.1099L3.22995 20.3299L0.569946 17.6699L10.4499 7.78992L15.1999 12.5399L24.6999 3.03992L28.4999 6.83992L32.3949 2.94495L29.45 0Z" fill="#1D1D1D" fill-opacity="0.05"/>
<path fill-rule="evenodd" clip-rule="evenodd" d="M29.45 0H38V8.55L35.0549 5.60495L28.4999 12.1599L24.6999 8.35992L15.1999 17.8599L10.4499 13.1099L3.22995 20.3299L0.569946 17.6699L10.4499 7.78992L15.1999 12.5399L24.6999 3.03992L28.4999 6.83992L32.3949 2.94495L29.45 0Z" fill="url(#paint5_linear_629_732)" fill-opacity="0.2"/>
<path d="M38 0H39V-1H38V0ZM29.45 0V-1H27.0358L28.7429 0.707107L29.45 0ZM38 8.55L37.2929 9.25711L39 10.9642V8.55H38ZM35.0549 5.60495L35.762 4.89784L35.0549 4.19074L34.3478 4.89784L35.0549 5.60495ZM28.4999 12.1599L27.7928 12.867L28.4999 13.5741L29.2071 12.867L28.4999 12.1599ZM24.6999 8.35992L25.4071 7.65281L24.6999 6.94571L23.9928 7.65281L24.6999 8.35992ZM15.1999 17.8599L14.4928 18.567L15.1999 19.2741L15.9071 18.567L15.1999 17.8599ZM10.4499 13.1099L11.1571 12.4028L10.4499 11.6957L9.74284 12.4028L10.4499 13.1099ZM3.22995 20.3299L2.52284 21.037L3.22995 21.7441L3.93705 21.037L3.22995 20.3299ZM0.569946 17.6699L-0.13716 16.9628L-0.844267 17.6699L-0.13716 18.377L0.569946 17.6699ZM10.4499 7.78992L11.1571 7.08282L10.4499 6.37571L9.74284 7.08282L10.4499 7.78992ZM15.1999 12.5399L14.4928 13.247L15.1999 13.9541L15.9071 13.247L15.1999 12.5399ZM24.6999 3.03992L25.4071 2.33281L24.6999 1.62571L23.9928 2.33281L24.6999 3.03992ZM28.4999 6.83992L27.7928 7.54703L28.4999 8.25414L29.2071 7.54703L28.4999 6.83992ZM32.3949 2.94495L33.102 3.65206L33.8091 2.94495L33.102 2.23784L32.3949 2.94495ZM38 -1H29.45V1H38V-1ZM39 8.55V0H37V8.55H39ZM34.3478 6.31206L37.2929 9.25711L38.7071 7.84289L35.762 4.89784L34.3478 6.31206ZM29.2071 12.867L35.762 6.31206L34.3478 4.89784L27.7928 11.4528L29.2071 12.867ZM23.9928 9.06703L27.7928 12.867L29.2071 11.4528L25.4071 7.65281L23.9928 9.06703ZM15.9071 18.567L25.4071 9.06703L23.9928 7.65281L14.4928 17.1528L15.9071 18.567ZM9.74284 13.817L14.4928 18.567L15.9071 17.1528L11.1571 12.4028L9.74284 13.817ZM3.93705 21.037L11.1571 13.817L9.74284 12.4028L2.52284 19.6228L3.93705 21.037ZM-0.13716 18.377L2.52284 21.037L3.93705 19.6228L1.27705 16.9628L-0.13716 18.377ZM9.74284 7.08282L-0.13716 16.9628L1.27705 18.377L11.1571 8.49703L9.74284 7.08282ZM15.9071 11.8328L11.1571 7.08282L9.74284 8.49703L14.4928 13.247L15.9071 11.8328ZM23.9928 2.33281L14.4928 11.8328L15.9071 13.247L25.4071 3.74703L23.9928 2.33281ZM29.2071 6.13281L25.4071 2.33281L23.9928 3.74703L27.7928 7.54703L29.2071 6.13281ZM31.6878 2.23784L27.7928 6.13281L29.2071 7.54703L33.102 3.65206L31.6878 2.23784ZM28.7429 0.707107L31.6878 3.65206L33.102 2.23784L30.1571 -0.707107L28.7429 0.707107Z" fill="url(#paint6_linear_629_732)" fill-opacity="0.1" mask="url(#path-6-inside-1_629_732)"/>
<defs>
<linearGradient id="paint0_linear_629_732" x1="38" y1="34.1996" x2="-0.748885" y2="17.235" gradientUnits="userSpaceOnUse">
<stop stop-color="#87FF8C"/>
<stop offset="0.776042" stop-color="#2A9B35"/>
</linearGradient>
<linearGradient id="paint1_linear_629_732" x1="36.9549" y1="20.33" x2="0.879401" y2="3.19564" gradientUnits="userSpaceOnUse">
<stop stop-color="#87FF8C"/>
<stop offset="0.776042" stop-color="#2A9B35"/>
</linearGradient>
<linearGradient id="paint2_linear_629_732" x1="38" y1="8.55" x2="28.2295" y2="6.09038" gradientUnits="userSpaceOnUse">
<stop stop-color="#87FF8C"/>
<stop offset="0.776042" stop-color="#2A9B35"/>
</linearGradient>
<linearGradient id="paint3_linear_629_732" x1="0" y1="12.3496" x2="39.8733" y2="29.9575" gradientUnits="userSpaceOnUse">
<stop stop-color="#87FF8C"/>
<stop offset="0.776042" stop-color="#0C9221"/>
</linearGradient>
<linearGradient id="paint4_linear_629_732" x1="1.1875" y1="13.3428" x2="38" y2="13.3428" gradientUnits="userSpaceOnUse">
<stop stop-color="#3CDEB6"/>
<stop offset="0.65625" stop-color="#38A571"/>
</linearGradient>
<linearGradient id="paint5_linear_629_732" x1="29.45" y1="-1.26238e-07" x2="39.5216" y2="2.55738" gradientUnits="userSpaceOnUse">
<stop stop-color="#87FF8C"/>
<stop offset="0.776042" stop-color="#0C9239"/>
</linearGradient>
<linearGradient id="paint6_linear_629_732" x1="29.7172" y1="0.388637" x2="38" y2="0.388637" gradientUnits="userSpaceOnUse">
<stop stop-color="#87FF8C"/>
<stop offset="0.65625" stop-color="#38A571"/>
</linearGradient>
</defs>
</svg>
