<svg width="52" height="34" viewBox="0 0 52 34" fill="none" xmlns="http://www.w3.org/2000/svg">
<g clip-path="url(#clip0_127_1192)">
<path d="M0 0H52V34H0V0Z" fill="white"/>
<path d="M0 0H52V2.61462H0V0ZM0 5.22924H52V7.84386H0V5.22924ZM0 10.4585H52V13.0731H0V10.4585ZM0 15.6877H52V18.3023H0V15.6877ZM0 20.9269H52V23.5415H0V20.9269ZM0 26.1561H52V28.7708H0V26.1561ZM0 31.3854H52V34H0V31.3854Z" fill="#D80027"/>
<path d="M0 0H26V18.3023H0V0Z" fill="#BBBBBB"/>
<path d="M4.84524 13.8087L4.43978 12.5361L3.99377 13.8087H2.65576L3.74036 14.5742L3.3349 15.8467L4.43978 15.0613L5.51424 15.8467L5.09865 14.5742L6.20352 13.8087H4.84524ZM10.5521 13.8087L10.1365 12.5361L9.71073 13.8087H8.37272L9.45732 14.5742L9.05186 15.8467L10.1365 15.0613L11.2312 15.8467L10.8257 14.5742L11.9103 13.8087H10.5521ZM16.2792 13.8087L15.8433 12.5361L15.4378 13.8087H14.0694L15.1844 14.5742L14.7587 15.8467L15.8433 15.0613L16.9583 15.8467L16.5326 14.5742L17.6172 13.8087H16.2792ZM21.9758 13.8087L21.5704 12.5361L21.1447 13.8087H19.7965L20.8912 14.5742L20.4858 15.8467L21.5704 15.0613L22.6651 15.8467L22.2293 14.5742L23.3443 13.8087H21.9758ZM10.1365 7.48585L9.71073 8.75837H8.37272L9.45732 9.54375L9.05186 10.7964L10.1365 10.0209L11.2312 10.7964L10.8257 9.54375L11.9103 8.75837H10.5521L10.1365 7.48585ZM4.43978 7.48585L3.99377 8.75837H2.65576L3.74036 9.54375L3.3349 10.7964L4.43978 10.0209L5.51424 10.7964L5.09865 9.54375L6.20352 8.75837H4.84524L4.43978 7.48585ZM15.8433 7.48585L15.4378 8.75837H14.0694L15.1844 9.54375L14.7587 10.7964L15.8433 10.0209L16.9583 10.7964L16.5326 9.54375L17.6172 8.75837H16.2792L15.8433 7.48585ZM21.5704 7.48585L21.1447 8.75837H19.7965L20.8912 9.54375L20.4858 10.7964L21.5704 10.0209L22.6651 10.7964L22.2293 9.54375L23.3443 8.75837H21.9758L21.5704 7.48585ZM4.43978 2.45544L3.99377 3.70808H2.65576L3.74036 4.49346L3.3349 5.75603L4.43978 4.97065L5.51424 5.75603L5.09865 4.49346L6.20352 3.70808H4.84524L4.43978 2.45544ZM10.1365 2.45544L9.71073 3.70808H8.37272L9.45732 4.49346L9.05186 5.75603L10.1365 4.97065L11.2312 5.75603L10.8257 4.49346L11.9103 3.70808H10.5521L10.1365 2.45544ZM15.8433 2.45544L15.4378 3.70808H14.0694L15.1844 4.49346L14.7587 5.75603L15.8433 4.97065L16.9583 5.75603L16.5326 4.49346L17.6172 3.70808H16.2792L15.8433 2.45544ZM21.5704 2.45544L21.1447 3.70808H19.7965L20.8912 4.49346L20.4858 5.75603L21.5704 4.97065L22.6651 5.75603L22.2293 4.49346L23.3443 3.70808H21.9758L21.5704 2.45544Z" fill="white"/>
</g>
<defs>
<clipPath id="clip0_127_1192">
<rect width="52" height="34" fill="white"/>
</clipPath>
</defs>
</svg>
