<svg width="14" height="15" viewBox="0 0 14 15" fill="none" xmlns="http://www.w3.org/2000/svg">
<path d="M13.5248 7.32281C13.5056 7.27961 13.0424 6.25203 12.0127 5.22227C10.6405 3.85016 8.9075 3.125 7 3.125C5.0925 3.125 3.35945 3.85016 1.98734 5.22227C0.957573 6.25203 0.492182 7.28125 0.475229 7.32281C0.450354 7.37876 0.4375 7.43931 0.4375 7.50055C0.4375 7.56178 0.450354 7.62233 0.475229 7.67828C0.49437 7.72148 0.957573 8.74852 1.98734 9.77828C3.35945 11.1498 5.0925 11.875 7 11.875C8.9075 11.875 10.6405 11.1498 12.0127 9.77828C13.0424 8.74852 13.5056 7.72148 13.5248 7.67828C13.5496 7.62233 13.5625 7.56178 13.5625 7.50055C13.5625 7.43931 13.5496 7.37876 13.5248 7.32281ZM7 11C5.31671 11 3.84617 10.388 2.62882 9.18164C2.12935 8.6849 1.7044 8.11848 1.36718 7.5C1.70427 6.88144 2.12923 6.315 2.62882 5.81836C3.84617 4.61195 5.31671 4 7 4C8.68328 4 10.1538 4.61195 11.3712 5.81836C11.8716 6.31492 12.2975 6.88135 12.6355 7.5C12.2412 8.23609 10.5235 11 7 11ZM7 4.875C6.48082 4.875 5.9733 5.02895 5.54162 5.31739C5.10994 5.60583 4.77349 6.0158 4.57481 6.49546C4.37613 6.97511 4.32415 7.50291 4.42543 8.01211C4.52672 8.52131 4.77673 8.98904 5.14384 9.35616C5.51095 9.72327 5.97868 9.97328 6.48788 10.0746C6.99708 10.1758 7.52488 10.1239 8.00454 9.92518C8.4842 9.7265 8.89416 9.39005 9.1826 8.95837C9.47104 8.52669 9.625 8.01918 9.625 7.5C9.62427 6.80403 9.34748 6.13677 8.85535 5.64464C8.36323 5.15252 7.69597 4.87572 7 4.875ZM7 9.25C6.65388 9.25 6.31553 9.14736 6.02775 8.95507C5.73996 8.76278 5.51566 8.48947 5.38321 8.1697C5.25075 7.84993 5.2161 7.49806 5.28362 7.15859C5.35115 6.81913 5.51782 6.5073 5.76256 6.26256C6.0073 6.01782 6.31912 5.85115 6.65859 5.78363C6.99805 5.7161 7.34992 5.75076 7.66969 5.88321C7.98946 6.01566 8.26277 6.23997 8.45507 6.52775C8.64736 6.81554 8.75 7.15388 8.75 7.5C8.75 7.96413 8.56562 8.40925 8.23743 8.73744C7.90924 9.06563 7.46412 9.25 7 9.25Z" fill="#AFAFAF"/>
</svg>
